<?xml version="1.0" encoding="utf-8"?>
<!-- Generator: Adobe Illustrator 22.1.0, SVG Export Plug-In . SVG Version: 6.00 Build 0)  -->
<svg version="1.1" xmlns="http://www.w3.org/2000/svg" xmlns:xlink="http://www.w3.org/1999/xlink" x="0px" y="0px"
	 viewBox="0 0 612 792" style="enable-background:new 0 0 612 792;" xml:space="preserve">
<style type="text/css">
	.st0{display:none;}
	.st1{display:inline;}
	.st2{fill:#FFFFFF;}
	.st3{fill:#010101;}
	.st4{fill:#FFFFFF;stroke:#000000;stroke-miterlimit:10;}
	.st5{opacity:0.5;fill:#010101;}
</style>
<g id="Layer_1" class="st0">
	<g class="st1">
		<path d="M494.1,403.9c23.4,38.4,13.7,81.8-23.1,107.9c-4.1,2.9-7.8,8.1-9,13c-12,49.2-39,86.2-85.3,108.1c-2.1,1-4,2.4-6.2,3.5
			c-67.7,34-60.7,33.2-129.8,1.8c-49.5-22.5-81.5-59.3-95.3-112.2c-1.2-4.6-6.2-9-10.6-11.7c-27.6-16.8-50.5-70.3-21.3-106.2
			c-18.9-12.6-10.3-33.1-13.8-51.3c-3.5,1.3-6.4,2.7-9.5,3.3c-12,2.3-18.4-6.8-13.6-20.2c5.5-15.4,11.7-30.6,17.9-46.8
			c-15.5-2.9-30-4.9-44.1-8.7c-5.5-1.5-13.1-6.4-14-10.9c-0.8-4.2,4.9-11.8,9.6-14.6c19.1-11,39-20.7,60-31.6
			c-9.4-15.4-19-29.8-27-45c-3.1-5.9-5.2-14.9-2.8-20.2c1.7-3.6,12.2-4.7,18.5-4.1c20.6,1.9,41.1,5.1,63.8,8
			c-2.6-15.3-5-29.4-7.4-43.5c-0.7-4.2-2.3-8.4-1.9-12.5c0.5-5.2,1-13,4.2-14.8c4.3-2.4,12.1-1.8,16.8,0.6
			c25,13.1,49.6,27.2,75.7,41.7c9.1-15.4,18.1-30.6,27.1-45.9c10.7-18.1,17-18.7,30-2.8c12.2,14.9,24.5,29.8,37.9,46.2
			c16.7-17.4,32.2-34.4,48.7-50.5c4.2-4.1,11.9-8.4,16.5-7.1c4.3,1.2,8.3,9.1,9.6,14.8c4.2,18.3,7.1,36.8,10.8,56.7
			c23.4-7,45.7-14.1,68.3-20.1c5.6-1.5,15.4-1.4,17.4,1.7c3,4.6,2.7,13.4,0.3,19c-8.3,19.9-18,39.3-27.6,60
			c20.4,10,40.4,19.2,59.7,29.7c5.3,2.9,11.2,9.6,11.5,14.9c0.3,4.1-7,10.2-12.3,12.7c-14.3,7-29.4,12.5-45.6,19.3
			c6.8,16.7,13,32.8,19.8,48.6c3.8,8.8,2.5,14.7-5.5,20.6c-3.3,2.5-5.1,9.2-5,13.9C508.1,383.1,507.4,396,494.1,403.9z M425.6,549.3
			c1.2-2.2,2.6-4.6,3.7-7.1c7.8-16.6,7.7-17.2-9.9-24.1c-7.9-3.1-16-5.7-24.2-7.8c-9.1-2.3-15.1-7-12.2-16.8
			c3-10,10.7-10.4,19.4-7.2c11,4,22.2,7.7,33.4,11.3c2.8,0.9,6.4,1.9,8.9,1c23.9-8.9,39.9-35.2,37.2-60.6
			c-1.4-13.7-17.9-30.8-29.9-30.7c-98.6,1.1-197.2,2.2-295.8,3.6c-4.1,0.1-8.9,2.2-12,5c-25.8,23.1-20.8,63.5,9.9,81.3
			c8.3,4.8,15.9,7.5,25.8,1.7c8.7-5.1,19.4-7,29.1-10.6c9.2-3.4,17.6-3.2,20.6,7.5c2.8,10-4.5,14-13,16.5
			c-9.4,2.9-18.6,6.6-27.9,9.9c-11.1,3.9-15.2,10.4-8.3,21.4c2.1,3.4,4,6.9,5,8.8c14.1-9.4,26.9-19,40.9-26.4
			c3.7-1.9,13.7,1.5,15.8,5.3c2,3.6-1.1,12.2-4.7,16.1c-4.9,5.3-12.8,7.8-18.8,12.3c-20.6,15.3-20.1,22.6,2.3,37
			c7.5-8.9,14.8-18,22.5-26.8c5.7-6.5,12.7-11.3,20.6-4c7.8,7.1,3.9,14.1-1.9,20.9c-6.6,7.7-12.6,15.9-20.6,26.2
			c21.4,9,39.9,17.1,58.7,24.3c4,1.5,9.8,1.5,13.7-0.2c18.5-7.8,36.6-16.5,57.4-26c-7.6-9.5-13-17.1-19.1-23.9
			c-6-6.7-12.2-13.6-3.9-21.8c9-9,16.3-2.1,22.6,4.9c7.2,8,14.1,16.2,21,24.3c22.3-15.5,22.3-22.8,0.5-38c-3.9-2.7-7.9-5.2-12.1-7.4
			c-7.7-4.1-14.4-9.4-9.7-18.7c5.1-9.8,14.1-8.3,21.9-3.4C403.9,533.8,414.4,541.6,425.6,549.3z M113,317.5
			c18.1-10.5,32.3-19.6,47.3-27.1c8.1-4,17.5-7.2,26.4-7.3c73.6-1.4,147.3-2.2,220.9-2.6c8,0,16.8,2.2,24,5.7
			c16.2,7.8,31.6,17.1,50.6,27.5c-4.4-10.5-6.9-17.5-10.3-24.2c-6.1-12.1-2.1-19.6,9.9-24.2c9.9-3.8,19.6-8,31.8-13
			c-17-8.4-31.1-15.9-45.6-22.4c-12.3-5.5-14.6-13.2-8.9-24.9c7-14.2,13.3-28.7,21.1-45.6c-19.7,5.9-36.7,10.9-53.7,16
			c-15.9,4.7-21.2,1.4-24.1-15.1c-2.4-13.7-4.8-27.5-7.3-41.2c-1.3-0.8-2.6-1.5-3.9-2.3c-12.3,13.4-24.4,27-36.9,40.1
			c-11.8,12.3-17.8,12-28.5-0.9c-11.9-14.2-23.6-28.6-36.2-43.9c-8.9,15.4-16.6,28.8-24.5,42.2c-8.4,14.3-12.8,15.5-27.3,7.6
			c-19.3-10.6-38.6-21.3-59.6-33c2.6,15.1,4.5,28.1,7,41c3.9,20.1,0.6,24.1-19.6,22.6c-4.2-0.3-8.4-1.2-12.6-1.7
			c-13.6-1.6-27.2-3.1-43-4.9c8.5,14,15,25.4,22.3,36.4c7.4,11.1,4.1,18.3-6.9,23.8c-12,6-23.9,12.2-38.7,19.8
			c8.8,1.7,13.9,2.8,18.9,3.7c18.3,3.4,21.5,9,15,26.2C118.5,301.8,116.4,307.8,113,317.5z M303.5,383.5c19.8-0.2,39.7-0.5,59.5-0.7
			c39.5-0.5,44.7-5.9,43.5-45.4c0-0.9,0-1.9-0.1-2.8c-1.2-20.3-10.1-28.6-30.6-28.4c-43,0.4-85.9,1-128.9,1.5
			c-42.1,0.5-49.3,8.4-45.4,50.3c0,0.5,0,0.9,0.1,1.4c2.1,17,10.9,25,28.3,24.9C254.4,384.2,278.9,383.7,303.5,383.5z M180,384.4
			c-0.3-25.5-0.6-50.5-0.9-76c-16.1,9.4-32.7,18.9-49,28.9c-2.4,1.5-5.1,4.9-5.1,7.4c-0.4,13.4,0.1,26.8,0.2,40.3
			C145.7,384.8,164,384.6,180,384.4z M428.7,380.9c16.8-0.2,35.3-0.4,54.7-0.6c-0.1-10,0.2-18.9-0.5-27.7c-0.3-3.8-1.6-9.1-4.3-10.7
			c-15.8-9.6-32.1-18.2-50.7-28.6C428.2,337.6,428.5,358.9,428.7,380.9z"/>
		<path class="st2" d="M425.6,549.3c-11.2-7.7-21.7-15.5-32.8-22.4c-7.9-5-16.9-6.5-21.9,3.4c-4.8,9.3,1.9,14.7,9.7,18.7
			c4.2,2.2,8.2,4.7,12.1,7.4c21.9,15.3,21.8,22.6-0.5,38c-7-8.1-13.9-16.3-21-24.3c-6.3-7-13.5-13.8-22.6-4.9
			c-8.3,8.2-2.1,15.1,3.9,21.8c6.2,6.8,11.6,14.4,19.1,23.9c-20.8,9.5-38.9,18.2-57.4,26c-4,1.7-9.7,1.8-13.7,0.2
			c-18.8-7.3-37.3-15.3-58.7-24.3c8-10.3,14-18.5,20.6-26.2c5.8-6.8,9.7-13.8,1.9-20.9c-7.9-7.3-14.9-2.5-20.6,4
			c-7.7,8.8-15,17.9-22.5,26.8c-22.4-14.5-22.9-21.7-2.3-37c6-4.5,13.8-7,18.8-12.3c3.6-3.9,6.7-12.5,4.7-16.1
			c-2.1-3.7-12.1-7.2-15.8-5.3c-14,7.4-26.8,17-40.9,26.4c-1.1-1.9-2.9-5.4-5-8.8c-6.9-10.9-2.8-17.5,8.3-21.4
			c9.3-3.3,18.5-7,27.9-9.9c8.5-2.6,15.8-6.6,13-16.5c-3-10.7-11.4-10.9-20.6-7.5c-9.7,3.6-20.4,5.4-29.1,10.6
			c-9.9,5.8-17.5,3.2-25.8-1.7c-30.7-17.8-35.8-58.2-9.9-81.3c3.1-2.8,7.9-4.9,12-5c98.6-1.4,197.2-2.5,295.8-3.6
			c12-0.1,28.5,17,29.9,30.7c2.7,25.4-13.3,51.7-37.2,60.6c-2.5,0.9-6.1-0.1-8.9-1c-11.2-3.6-22.3-7.3-33.4-11.3
			c-8.8-3.2-16.5-2.8-19.4,7.2c-2.9,9.9,3.1,14.5,12.2,16.8c8.2,2.1,16.3,4.7,24.2,7.8c17.6,6.9,17.7,7.5,9.9,24.1
			C428.2,544.7,426.8,547.1,425.6,549.3z M234.9,423.2c-10.7,0.1-19,8.1-19.1,18.4c-0.1,9.5,9.3,19,18.9,19.1
			c10.3,0.1,18.5-8.3,18.6-18.9C253.3,430.9,245.7,423.2,234.9,423.2z M356.7,439.5c-0.2,10.8,7.5,19.2,17.9,19.6
			c9.5,0.4,19.2-8.8,19.6-18.4c0.4-10.1-7.9-18.7-18.4-19.1C364.8,421.3,356.9,428.7,356.7,439.5z"/>
		<path class="st2" d="M113,317.5c3.5-9.7,5.6-15.8,7.8-21.7c6.5-17.2,3.3-22.8-15-26.2c-5.1-0.9-10.1-2-18.9-3.7
			c14.9-7.6,26.8-13.8,38.7-19.8c10.9-5.5,14.3-12.7,6.9-23.8c-7.3-10.9-13.8-22.4-22.3-36.4c15.8,1.8,29.4,3.3,43,4.9
			c4.2,0.5,8.4,1.4,12.6,1.7c20.1,1.5,23.4-2.5,19.6-22.6c-2.5-12.9-4.5-25.9-7-41c21,11.6,40.3,22.4,59.6,33
			c14.4,7.9,18.9,6.7,27.3-7.6c7.8-13.4,15.6-26.9,24.5-42.2c12.7,15.4,24.4,29.7,36.2,43.9c10.8,12.9,16.7,13.3,28.5,0.9
			c12.6-13.1,24.6-26.7,36.9-40.1c1.3,0.8,2.6,1.5,3.9,2.3c2.4,13.7,4.8,27.5,7.3,41.2c2.9,16.5,8.2,19.8,24.1,15.1
			c17-5.1,34-10.1,53.7-16c-7.8,16.9-14.2,31.4-21.1,45.6c-5.7,11.7-3.4,19.4,8.9,24.9c14.6,6.5,28.7,14,45.6,22.4
			c-12.2,5-21.9,9.2-31.8,13c-12.1,4.6-16,12.1-9.9,24.2c3.3,6.6,5.8,13.7,10.3,24.2c-19-10.5-34.4-19.7-50.6-27.5
			c-7.3-3.5-16-5.7-24-5.7c-73.6,0.4-147.3,1.2-220.9,2.6c-8.9,0.2-18.3,3.3-26.4,7.3C145.3,297.9,131.1,307,113,317.5z"/>
		<path class="st2" d="M303.5,383.5c-24.5,0.3-49.1,0.7-73.6,0.8c-17.4,0.1-26.2-7.9-28.3-24.9c-0.1-0.5-0.1-0.9-0.1-1.4
			c-3.9-41.9,3.3-49.9,45.4-50.3c43-0.5,85.9-1,128.9-1.5c20.5-0.2,29.4,8.2,30.6,28.4c0.1,0.9,0,1.9,0.1,2.8
			c1.2,39.5-4,44.9-43.5,45.4C343.1,383,323.3,383.2,303.5,383.5z"/>
		<path class="st2" d="M180,384.4c-16.1,0.2-34.3,0.4-54.8,0.6c-0.2-13.5-0.6-26.9-0.2-40.3c0.1-2.6,2.7-6,5.1-7.4
			c16.4-9.9,33-19.5,49-28.9C179.5,333.9,179.7,358.9,180,384.4z"/>
		<path class="st2" d="M428.7,380.9c-0.3-21.9-0.5-43.3-0.8-67.6c18.6,10.3,34.9,19,50.7,28.6c2.7,1.6,4,7,4.3,10.7
			c0.7,8.8,0.4,17.7,0.5,27.7C464,380.5,445.5,380.7,428.7,380.9z"/>
		<path d="M234.9,423.2c10.8-0.1,18.5,7.7,18.3,18.6c-0.1,10.6-8.3,19-18.6,18.9c-9.6-0.1-19-9.6-18.9-19.1
			C215.9,431.3,224.2,423.3,234.9,423.2z"/>
		<path d="M356.7,439.5c0.2-10.8,8.1-18.2,19.1-17.9c10.5,0.4,18.8,9,18.4,19.1c-0.4,9.6-10.1,18.7-19.6,18.4
			C364.2,458.7,356.5,450.3,356.7,439.5z"/>
	</g>
</g>
<g id="Layer_2" class="st0">
	<g class="st1">
		
			<rect x="431.1" y="183.2" transform="matrix(3.209971e-03 -1 1 3.209971e-03 248.2444 664.9131)" class="st3" width="53.1" height="49.5"/>
		<path class="st3" d="M531.5,394.1l0.1-53.1l-49.5-0.2l0.1-53.1l-49.5-0.2l0.1-53.1l-49.5-0.2l-0.1,53.1l-49.5-0.2l-49.5-0.2l0,0.5
			h-1.3h-49.5v-53.1h-49.5v53.1h-49.5v53.1H84.5v53.1H35v53.1V500v53.1h49.5V500v-53.1h49.5V500v53.1h49.5V500h49.5h49.5l20-0.1
			l-19.7,0.1h49.5v-0.3l0.3,0l49.5,0.2l49.5,0.2l-0.1,53.1l49.5,0.2l0.1-53.1l0.1-53.1l49.5,0.2l-0.1,53.1l-0.1,53.1l49.5,0.2
			l0.1-53.1l0.1-53.1l0.1-53.1L531.5,394.1z M233.2,393.8h-49.5v-53.1h49.5V393.8z M332.6,499.7L332.6,499.7L332.6,499.7
			L332.6,499.7z M432.4,393.8l-49.5-0.2l0.1-53.1l49.5,0.2L432.4,393.8z"/>
		<polygon class="st3" points="332.8,552.8 332.7,606 382.2,606.1 431.8,606.3 431.9,553.2 382.4,553 		"/>
		<rect x="134.1" y="181.3" class="st3" width="49.5" height="53.1"/>
		<polygon class="st3" points="233.2,606.3 282.7,606.3 282.7,553.2 233.2,553.2 183.6,553.2 183.6,606.3 		"/>
	</g>
</g>
<g id="Layer_3">
	<g>
		<g>
			<ellipse class="st4" cx="310" cy="392.3" rx="255" ry="247.1"/>
			<path class="st5" d="M367.2,623.6c-140.8,0-255-110.6-255-247.1c0-102.8,64.8-190.9,156.9-228.1C147.7,167.4,55,269.3,55,392.3
				c0,136.5,114.2,247.1,255,247.1c34.8,0,67.9-6.8,98.1-19C394.8,622.5,381.1,623.6,367.2,623.6z"/>
		</g>
		<polygon points="248.7,513.9 218.3,497.9 187.4,513.1 193.7,480.1 169.3,456.3 203.6,452 219.4,422.1 234.3,452.4 268.5,457.7 
			243.3,480.8 		"/>
		<polygon points="442.8,468 412.4,452 381.6,467.2 387.9,434.2 363.5,410.4 397.8,406.1 413.6,376.2 428.4,406.5 462.6,411.8 
			437.5,434.9 		"/>
		<polygon points="290.2,345.7 259.8,329.7 228.9,344.8 235.3,311.9 210.9,288.1 245.2,283.8 261,253.9 275.8,284.2 310,289.5 
			284.9,312.6 		"/>
		<polygon points="442.8,327.7 412.4,311.6 381.6,326.8 387.9,293.8 363.5,270.1 397.8,265.7 413.6,235.9 428.4,266.2 462.6,271.5 
			437.5,294.5 		"/>
	</g>
</g>
</svg>
