<?xml version="1.0" encoding="utf-8"?>
<!-- Generator: Adobe Illustrator 22.1.0, SVG Export Plug-In . SVG Version: 6.00 Build 0)  -->
<svg version="1.1" id="Layer_1" xmlns="http://www.w3.org/2000/svg" xmlns:xlink="http://www.w3.org/1999/xlink" x="0px" y="0px"
	 viewBox="0 0 612 792" style="enable-background:new 0 0 612 792;" xml:space="preserve">
<style type="text/css">
	.st0{fill:#010101;}
</style>
<g>
	
		<rect x="431.1" y="183.2" transform="matrix(3.209971e-03 -1 1 3.209971e-03 248.2444 664.9131)" class="st0" width="53.1" height="49.5"/>
	<path class="st0" d="M531.5,394.1l0.1-53.1l-49.5-0.2l0.1-53.1l-49.5-0.2l0.1-53.1l-49.5-0.2l-0.1,53.1l-49.5-0.2l-49.5-0.2l0,0.5
		h-1.3h-49.5v-53.1h-49.5v53.1h-49.5v53.1H84.5v53.1H35v53.1V500v53.1h49.5V500v-53.1h49.5V500v53.1h49.5V500h49.5h49.5l20-0.1
		l-19.7,0.1h49.5v-0.3l0.3,0l49.5,0.2l49.5,0.2l-0.1,53.1l49.5,0.2l0.1-53.1l0.1-53.1l49.5,0.2l-0.1,53.1l-0.1,53.1l49.5,0.2
		l0.1-53.1l0.1-53.1l0.1-53.1L531.5,394.1z M233.2,393.8h-49.5v-53.1h49.5V393.8z M332.6,499.7L332.6,499.7L332.6,499.7L332.6,499.7
		z M432.4,393.8l-49.5-0.2l0.1-53.1l49.5,0.2L432.4,393.8z"/>
	<polygon class="st0" points="332.8,552.8 332.7,606 382.2,606.1 431.8,606.3 431.9,553.2 382.4,553 	"/>
	<rect x="134.1" y="181.3" class="st0" width="49.5" height="53.1"/>
	<polygon class="st0" points="233.2,606.3 282.7,606.3 282.7,553.2 233.2,553.2 183.6,553.2 183.6,606.3 	"/>
</g>
</svg>
