<?xml version="1.0" encoding="utf-8"?>
<!-- Generator: Adobe Illustrator 22.1.0, SVG Export Plug-In . SVG Version: 6.00 Build 0)  -->
<svg version="1.1" id="Layer_1" xmlns="http://www.w3.org/2000/svg" xmlns:xlink="http://www.w3.org/1999/xlink" x="0px" y="0px"
	 viewBox="0 0 612 792" style="enable-background:new 0 0 612 792;" xml:space="preserve">
<style type="text/css">
	.st0{fill:#010101;}
	.st1{fill:#FFFFFF;}
	.st2{fill:#FFFFFF;stroke:#000000;stroke-miterlimit:10;}
	.st3{opacity:0.5;fill:#010101;}
</style>
<g>
	
		<rect x="354.4" y="163.6" transform="matrix(3.209971e-03 -1 1 3.209971e-03 190.1727 535.2042)" class="st0" width="18.4" height="17.2"/>
	<path class="st0" d="M389.1,236.7l0.1-18.4l-17.2-0.1l0.1-18.4l-17.2-0.1l0.1-18.4l-17.2-0.1l-0.1,18.4l-17.2-0.1l-17.2-0.1l0,0.2
		H303h-17.2v-18.4h-17.2v18.4h-17.2v18.4h-17.2v18.4h-17.2v18.4v18.4v18.4h17.2v-18.4v-18.4h17.2v18.4v18.4h17.2v-18.4h17.2H303
		l6.9,0l-6.8,0h17.2v-0.1l0.1,0l17.2,0.1l17.2,0.1l-0.1,18.4l17.2,0.1l0.1-18.4l0.1-18.4L389,255l-0.1,18.4l-0.1,18.4l17.2,0.1
		l0.1-18.4l0.1-18.4l0.1-18.4L389.1,236.7z M285.9,236.5h-17.2v-18.4h17.2V236.5z M320.3,273.2L320.3,273.2L320.3,273.2L320.3,273.2
		z M354.8,236.5l-17.2-0.1l0.1-18.4l17.2,0.1L354.8,236.5z"/>
	<polygon class="st0" points="320.3,291.6 320.3,310 337.4,310 354.6,310.1 354.6,291.7 337.5,291.7 	"/>
	<rect x="251.6" y="163" class="st0" width="17.2" height="18.4"/>
	<polygon class="st0" points="285.9,310.1 303,310.1 303,291.7 285.9,291.7 268.7,291.7 268.7,310.1 	"/>
</g>
<g>
	<polygon class="st0" points="501.8,412.2 314.8,638.3 127.8,409.2 187.4,344.4 444.9,344.4 	"/>
	<polygon class="st1" points="476.1,422 314.8,620.1 153.4,419.4 204.9,362.7 427,362.7 	"/>
	<polygon class="st0" points="521.9,515.8 111.8,515.8 68.8,386.3 560.8,386.3 	"/>
	<polygon class="st1" points="184.4,537.9 200.6,582 219.4,575.7 242.3,568.3 266.3,566 285.7,561.8 303.8,562.6 319.8,560.6 
		336.1,563.7 356.9,565.2 376,568.6 393,572.4 411.4,575.2 428.7,582 445.1,537.9 431.1,531 413.4,525.4 392.6,519.2 368,517.2 
		354,513.4 336.4,513.4 322.9,513.4 306.2,513.4 280.2,513.4 262.9,517.2 237.3,519.1 199.9,528.4 	"/>
	<g>
		<path class="st0" d="M220.3,591.6l-20.5-3.3c-3.7-10.1-7.4-20.1-11.1-30.1c-11.7,3.4-23.3,7.5-36.6,12.7
			c10.1,7.3,26.6,17.4,26.6,17.4s-4.5,21.8-6.2,32.1c18.6-7.3,43.5-17.1,64.5-22.2v-3.8L220.3,591.6z"/>
		<path class="st0" d="M450.8,588.7c0,0,16.4-10.1,26.6-17.4c-13.2-5.2-24.9-9.4-36.6-12.7c-3.7,10-7.4,20.1-11.1,30.1h0l-18.3,3h0
			l-23.2,3.8v2.1c21.9,4.7,48.9,15.4,68.8,23.2C455.3,610.5,450.8,588.7,450.8,588.7z"/>
		<path class="st0" d="M201.1,586.2l20.5,3.3L237,592v-16.3C224.9,578.6,212.9,582,201.1,586.2z"/>
		<path class="st0" d="M410.1,589.7L410.1,589.7l18.4-3c-13.2-4.7-26.6-8.5-40.2-11.5v18L410.1,589.7z"/>
		<path class="st0" d="M243.1,572.3c23.5-5,47.5-7.5,71.4-7.5c15,0,29.9,1,44.8,2.9c8.9,1.2,17.8,2.7,26.6,4.6
			c10.6,2.3,21.2,5.1,31.6,8.4c3.5,1.1,6.9,2.3,10.4,3.5h0c0.5-1.5,0.9-2.5,1.4-3.9l-4.1-1.4c-12.6-4.3-25.3-7.8-38.2-10.5
			c-23.7-5.1-48-7.7-72.5-7.7c-24.5,0-48.7,2.6-72.5,7.7c-12.9,2.8-25.7,6.3-38.3,10.6l-4.1,1.3c0.7,1.8,0.8,2.3,1.5,4.1
			C214.9,579.3,228.9,575.4,243.1,572.3z"/>
		<path class="st0" d="M188.2,536.5c40.7-13.9,83.2-20.9,126.3-20.9h0.4c42.7,0,85.1,7,125.9,20.9l4.1,1.3c0.5-1.5,0.9-2.4,1.4-3.9
			c-13.5-4.7-27-8.7-40.6-11.9c-4.4-1-8.8-2-13.3-2.9c-12.8-2.6-25.7-4.5-38.6-5.8c-12.9-1.3-25.9-1.9-38.9-1.9h-0.4
			c-5.6,0-11.1,0.1-16.7,0.4c-25.1,1.1-50.1,4.5-74.6,10.3c-13.6,3.2-27.1,7.2-40.5,11.9c0.7,1.8,0.8,2.2,1.5,4L188.2,536.5z"/>
	</g>
</g>
<g>
	<path class="st1" d="M145.3,404.7H163c0.2,0,2.1,4.6,5.7,13.9c0.3,0.4,4,9.5,11.2,27.4h4.5v-41.3h15.5v49.2h1.8v19.2h-6.2v3.7h6.2
		v11.4h-23.2v-14.5h-4.1c-5.6-13.6-9.3-23-11.3-28.1v-14.6h-2.2v44.5h-3.5v15.3h-14.5v-33.1h2.6v-0.2
		C145.3,429,145.3,411.4,145.3,404.7z M171.3,446v3.2h9.6c-0.8-2.1-1.3-3.2-1.5-3.2H171.3z M178.4,489.8h28.1v1.6h-28.1V489.8z
		 M184.5,446v3.2h-3.4c2.1,5.1,3.3,8.5,3.7,10.1h0.1v-0.4c-0.3-5.3-0.4-8.5-0.4-9.6h7V446H184.5z"/>
	<path class="st1" d="M241.1,404.6c12.5,0,20.6,4.3,24.6,13c2.2,4.2,3.3,12.4,3.3,24.6v0.4h-6.4v2.9h6.4v31.4h-4.2v11.3h-8.4v3.2
		h-29.5v-3.2h-3.6v-11.3h-7.6V468h4.5v-4.7h-4.5v4.7H205v-4.7h8.1c-0.1-7.1-0.1-12.5-0.1-16.3v-7.4c0-13.7,2.3-22.9,7-27.6
		C224.2,407.1,231.2,404.6,241.1,404.6z M230.5,434.5h0.2l-0.2,0.2v7.9H224v2.9h6.5c-0.1,12.5-0.1,21.9-0.1,28.3v3.1h14.5v-4.8h6.7
		v-0.2c0-5.9,0-14.1-0.1-24.7c0-0.4,0-1.6,0.1-3.3c0-11.4-0.7-18.4-2-21c-1.4-2.5-3.9-3.8-7.6-3.8h-2.1c-4.4,0-7.1,1.9-8.2,5.8
		C231.2,426.8,230.8,430,230.5,434.5z M269,442.6h10.4v2.9H269V442.6z"/>
	<path class="st1" d="M275.5,489H291v1.3h-15.5V489z M276.8,404.9h19.3c2.1,7.8,6.5,23.3,13.1,46.6h7.6c0.2,0,1-2.8,2.5-8.3
		c3.2-11,6.8-23.8,10.8-38.3H348V461h1v10.3h-5.4v1.9h5.4v18.3h-15.2v-6.7h1.9v-20.7h-3.2v-10.4h-1.9l-0.1,0.6h-1.6v14.7h-5.3v6.9
		H319v11.7h-10.7V480h-6.6v-10.2h-3.9v-10.7h-2.2c-0.1-0.6-0.6-2.4-1.5-5.6h15.3l-0.4-2.1h-15.3l0.4,2.1h-2V467h1v14.7h-3.8v2.6h3.8
		v3.9h-13.7v-17.8h-2.6V404.9z M287.2,451.5v2.1h4.8v-2.1H287.2z M292,445.4v1c0,0.9,0.1,2.6,0.2,5.1h1.5c-1-3.9-1.5-5.9-1.5-6.1
		H292z M309.8,453.5c0.6,3.1,1.1,4.7,1.3,4.7h1.8v7.8h2.7v-12h0.7v-0.4H309.8z M317.1,451.5l-0.4,2.1h13.8c0.4-1.1,0.5-1.7,0.5-2.1
		H317.1z M332.4,445.5l-1.3,5.9h1.3c0.1-2.5,0.2-4.3,0.2-5.4v-0.5H332.4z M332.6,451.5v2.1h10.5v-2.1H332.6z M348.9,471.2h8.8v1.9
		h-8.8V471.2z"/>
	<path class="st1" d="M360.9,404.5h16.4c0.2,0,0.2,0.1,0.2,0.3V447c0,0.2-0.1,0.3-0.2,0.3h-1.9v43.8c0,0.2-0.1,0.3-0.3,0.3h-14.1
		c-0.2,0-0.3-0.1-0.3-0.3v-44.8h-4.4c-0.2,0-0.3-0.1-0.3-0.3v-1.9c0-0.2,0.1-0.3,0.3-0.3h4.4v-39
		C360.6,404.6,360.7,404.5,360.9,404.5z M360.7,443.8v2.5h8.4v-2.5H360.7z"/>
	<path class="st1" d="M394.6,395.7c1.8,0,3.6,1.3,5.4,4c1.8,2.6,2.7,5.7,2.7,9.2c0,4.4-1.4,9-4.3,13.7c-2.9,4.8-5.7,7.1-8.4,7.1
		v-2.6c3-1.7,4.7-5.6,5.3-11.5c0-4.8-2.6-8.1-7.8-9.8v-2.5L394.6,395.7z"/>
	<path class="st1" d="M409.5,465.6h5.8v3.2h-5.8V465.6z M443.5,404.7c9.6,0,16.1,3.1,19.3,9.3c2.3,4.7,3.4,9.3,3.4,13.8h-0.1
		c-6.6,0.6-11.1,0.9-13.5,0.9c0-3.2-1-5.9-3-8.1c-1.9-1.1-3.6-1.6-5.2-1.6h-2.4c-4.1,0-6.6,1.6-7.5,4.8c-0.2,0.9-0.3,1.7-0.3,2.2
		v1.3c0,4.5,2.4,7.8,7.2,9.8c0.4,0.4,3.7,1.9,9.9,4.5c3.3,1.5,6.4,3.4,9.2,5.7v0.1h-15.2v1.7h20.1v2.4h2.5v26.3h-5v13.5h-38.6v-13.5
		h-9.1v-9.1h5.2v-3.2h-5.2v-2.1H433v14.4H451v-21.7h-13.5v-7.1h-16.8v-1.7h8.1v-0.1c-7.1-4.7-10.7-11.4-10.7-20.1v-1.2
		c0-7.2,2.2-12.7,6.7-16.5C428.9,406.3,435.1,404.7,443.5,404.7z M465.4,447.4h6.1v1.7h-6.1V447.4z"/>
</g>
<g>
	<g>
		<path d="M258.8,521.4c6.3-1,10.5,0.3,12.5,3.7c0.6,0.8,0.9,1.4,0.9,1.6c-1.6,0.2-2.3,0.3-3.9,0.5c0.1,0.4,0.1,0.7,0.1,1.1
			c1.7-0.2,2.5-0.3,4.2-0.5c0,0,0,0,0-0.1c0-0.2-0.2-0.5-0.4-1c2.9-0.3,4.3-0.5,7.2-0.8c0,0.4,0.1,0.7,0.1,1.1
			c-2.7,0.3-4.1,0.4-6.8,0.7c0,0,0,0.1,0,0.1c0.5,1.5,1,3.1,1.3,4.9c0,0.1-2.6,0.6-7.9,1.6c0,0,0,0,0-0.1c-0.6-4.5-2.6-6.6-6-6
			c-0.4,0.1-0.5,0.1-0.9,0.1c-2.5,0.4-3.9,1.7-4.1,3.7c-0.2,1.7,0,4,0.5,6.7c0.4,2.2,0.6,3.3,0.9,5.5c0,0.3,0,0.5,0.1,0.8
			c-1.1,0.2-1.6,0.3-2.7,0.5c0.1,0.5,0.1,0.8,0.2,1.3c1.1-0.2,1.6-0.3,2.7-0.5c0.7,3.9,1,5.9,1.7,9.9c4.4-0.8,6.6-1.1,11-1.8
			c-0.5-4.1-0.8-6.2-1.4-10.3c2.6-0.4,3.9-0.5,6.5-0.9c0.5,4.1,0.7,6.2,1.2,10.3c-1.4,0.2-2.1,0.3-3.5,0.4c0.3,2.5,0.5,3.8,0.8,6.4
			c-2.9,0.4-4.3,0.6-7.2,1c0,0.2,0,0.3,0.1,0.5c-2.2,0.4-3.3,0.5-5.5,0.9c0-0.2-0.1-0.3-0.1-0.5c-2.3,0.4-3.4,0.6-5.6,1.1
			c-0.2-1.3-0.3-1.9-0.6-3.1c1.5-0.3,2.3-0.4,3.8-0.7c-0.1-0.5-0.1-0.8-0.2-1.4c-2.3,0.4-3.4,0.6-5.7,1.1c-0.4-1.9-0.5-2.8-0.9-4.6
			c-1,0.2-1.5,0.3-2.5,0.5c-0.5-2.3-0.7-3.4-1.1-5.7c0.5-0.1,0.8-0.2,1.3-0.3c-0.5-2.3-0.9-4.2-1.2-5.6c-1.2-6.2-1.6-10.2-1.3-11.9
			c0.3-1.9,0.9-3.8,2.1-5.4C250.4,523.9,253.9,522.2,258.8,521.4z"/>
		<path d="M280.9,518.3c3.6-0.3,5.5-0.5,9.1-0.7c0.4,6.8,0.6,10.2,1,17.1c-0.7,0-1,0.1-1.7,0.1c0.5,7,0.7,10.6,1.1,17.6
			c4.9-0.3,7.3-0.5,12.2-0.6c0,1.5,0.1,2.2,0.1,3.7c-1,0-1.4,0-2.4,0.1c0,0.3,0,0.5,0,0.8c1,0,1.4,0,2.4-0.1c0,1,0,1.4,0.1,2.4
			c-3.1,0.1-4.6,0.1-7.7,0.3c0-0.3,0-0.4,0-0.6c-4.2,0.2-6.4,0.4-10.6,0.8c-0.1-0.5-0.1-0.8-0.1-1c-0.3-3.7-0.5-5.6-0.8-9.3
			c0.8-0.1,1.3-0.1,2.1-0.2c0-0.5-0.1-0.7-0.1-1.2c-0.8,0.1-1.3,0.1-2.1,0.2C282.4,535.9,281.9,530,280.9,518.3z M302.8,555.5
			c1.2,0,1.8,0,3-0.1c0,0.3,0,0.5,0,0.8c-1.2,0-1.8,0-2.9,0.1C302.8,556,302.8,555.8,302.8,555.5z"/>
		<path d="M311.8,517.1c3.5,0,5.3,0,8.8,0.2c-0.3,8.8-0.4,13.2-0.6,22c-1.6,0-2.3-0.1-3.9-0.1c0,0.5,0,0.7,0,1.2
			c1.6,0,2.3,0,3.9,0.1c0,1.6-0.1,2.5-0.1,4.1c-0.1,3.8,0.5,6,1.8,6.6c0.7,0.5,1.5,0.7,2.5,0.7c1,0,1.5,0.1,2.4,0.1
			c0.1-2.9,0.2-4.4,0.4-7.3c0.9,0,1.3,0.1,2.2,0.1c0.6-10.8,0.9-16.3,1.6-27.1c3.5,0.2,5.2,0.4,8.7,0.7c-0.8,10.2-1.3,15.3-2.1,25.4
			c-1.2-0.1-1.8-0.2-2.9-0.2c-0.1,0.7-0.1,1.1-0.1,1.9c1.2,0.1,1.7,0.1,2.9,0.2c-0.1,0.6-0.1,1-0.2,1.4c-0.3,3.2-0.4,4.9-0.7,8.1
			c-1.6-0.1-2.5-0.2-4.1-0.3c-0.1,1.9-0.2,2.8-0.3,4.6c-7.2-0.5-10.8-0.7-18-0.8c0-2.3,0-3.4,0.1-5.7c-0.7,0-1,0-1.7,0
			c0-6.9,0.1-10.3,0.1-17.2c-0.3,0-0.4,0-0.6,0C311.8,528.2,311.8,524.5,311.8,517.1z M320,539.2c1.9,0.1,2.8,0.1,4.7,0.2
			c0,0.5,0,0.7-0.1,1.2c-1.9-0.1-2.8-0.1-4.7-0.2C320,539.9,320,539.6,320,539.2z"/>
		<path d="M349.4,519.8c5.1,0.6,7.7,1,12.8,1.8c5.7,0.9,9.1,2.9,10.1,5.8c0.6,1.5,0.7,3.4,0.2,5.8c-0.2,1.1-0.3,1.7-0.5,2.8
			c-0.5,2.7-2.1,4.6-4.8,5.7c0.8,0.3,1.7,1.1,2.8,2.4c0.4,0.1,0.6,0.1,0.9,0.2c0.9,1.4,1.5,2.7,1.6,3.9c0,0.4,0,0.6,0,0.7
			c0.5,0.1,0.7,0.1,1.1,0.2c-0.1,0.3-0.1,0.4-0.1,0.7c-1.5-0.3-2.3-0.5-3.8-0.8c0.1-0.3,0.1-0.4,0.1-0.7c-3.1-0.6-4.6-0.9-7.7-1.5
			c0.1-0.9,0.2-1.3,0.3-2.1c-3.1-0.5-4.6-0.8-7.7-1.2c-0.7,4.7-1,7.1-1.6,11.9c1.9,0.3,2.8,0.4,4.6,0.7c0.1-0.3,0.1-0.5,0.1-0.8
			c1.1,0.2,1.7,0.3,2.8,0.5c0.5-3.3,0.8-4.9,1.3-8.2c3.1,0.5,4.6,0.8,7.7,1.4c-0.5,2.9-0.8,4.3-1.3,7.1c0.3,0.1,0.5,0.1,0.8,0.2
			c-0.3,1.8-0.5,2.7-0.9,4.5c-1-0.2-1.5-0.3-2.4-0.5c-0.1,0.4-0.1,0.6-0.2,1.1c1,0.2,1.5,0.3,2.4,0.5c-0.1,0.7-0.2,1.1-0.4,1.8
			c-3.7-0.8-5.6-1.1-9.3-1.7c0,0.3-0.1,0.5-0.1,0.8c-4.1-0.7-6.1-1-10.2-1.5c0-0.3,0.1-0.5,0.1-0.8c-0.9-0.1-1.3-0.2-2.2-0.3
			c0.3-2.5,0.4-3.8,0.7-6.3c1.2,0.2,1.9,0.2,3.1,0.4c0.1-0.7,0.1-1,0.2-1.7c-1.3-0.2-1.9-0.3-3.1-0.4c0.3-3.2,0.6-5.6,0.7-7.2
			c0.1-1.2,0.2-1.8,0.4-3c-1.1-0.1-1.6-0.2-2.7-0.3c0-0.3,0-0.5,0.1-0.8c1.1,0.1,1.6,0.2,2.7,0.3c0.1-0.6,0.1-1,0.2-1.6
			c-0.5-0.1-0.8-0.1-1.3-0.2c0.9-7.8,1.3-11.7,2.2-19.5C349.3,519.8,349.3,519.7,349.4,519.8z M348.3,541.2c0,0.3-0.1,0.4-0.1,0.7
			c1.6,0.2,2.3,0.3,3.9,0.5c0-0.3,0.1-0.4,0.1-0.7C350.6,541.5,349.8,541.4,348.3,541.2z M357.2,527.8c-0.6,4-0.8,6.1-1.4,10.1
			c0.7,0.1,1.1,0.2,1.8,0.3c2.1,0.3,3.6,0.2,4.4-0.3c0.7-0.5,1.4-1.9,1.7-4.3c0-0.1,0-0.1,0-0.1c0.3-2.1,0.1-3.4-0.5-3.9
			c-0.4-0.4-1.9-1-4.7-1.5C358.1,528,357.8,527.9,357.2,527.8z M358.3,546.2c1.6,0.3,2.4,0.4,3.9,0.7c0,0.3-0.1,0.4-0.1,0.7
			c-1.6-0.3-2.4-0.4-3.9-0.7C358.2,546.6,358.3,546.4,358.3,546.2z"/>
	</g>
</g>
<g>
	<g>
		<ellipse class="st2" cx="524.3" cy="300.9" rx="58.3" ry="56.5"/>
		<path class="st3" d="M537.4,353.8c-32.2,0-58.3-25.3-58.3-56.5c0-23.5,14.8-43.6,35.9-52.1c-27.7,4.3-48.9,27.6-48.9,55.7
			c0,31.2,26.1,56.5,58.3,56.5c7.9,0,15.5-1.5,22.4-4.3C543.7,353.5,540.5,353.8,537.4,353.8z"/>
	</g>
	<polygon points="510.3,328.7 503.3,325 496.3,328.5 497.7,321 492.1,315.5 500,314.5 503.6,307.7 507,314.6 514.8,315.9 
		509.1,321.1 	"/>
	<polygon points="554.6,318.2 547.7,314.5 540.6,318 542.1,310.5 536.5,305 544.4,304.1 548,297.2 551.4,304.2 559.2,305.4 
		553.4,310.6 	"/>
	<polygon points="519.8,290.3 512.8,286.6 505.8,290.1 507.2,282.5 501.6,277.1 509.5,276.1 513.1,269.3 516.5,276.2 524.3,277.4 
		518.5,282.7 	"/>
	<polygon points="554.6,286.1 547.7,282.5 540.6,285.9 542.1,278.4 536.5,273 544.4,272 548,265.2 551.4,272.1 559.2,273.3 
		553.4,278.6 	"/>
</g>
<g>
	<path d="M136.9,288.7c9.8,5.6,12.9,16.4,7.9,26.6c-0.6,1.1-0.7,2.7-0.4,3.9c3.3,12.3,1.8,23.7-5.8,34.1c-0.3,0.5-0.6,1-0.9,1.5
		c-10.8,15.6-9.4,14.6-28.4,16c-13.6,1-25.1-3.3-34.5-13.3c-0.8-0.9-2.5-1.2-3.8-1.3c-8.1-0.4-19.6-9.4-17.5-20.9
		c-5.7-0.5-6.2-6.1-9.2-9.7c-0.6,0.7-1.1,1.4-1.7,1.9c-2.4,2-4.9,0.7-5.4-2.8c-0.6-4.1-1.1-8.2-1.7-12.5c-3.8,1.2-7.2,2.5-10.8,3.4
		c-1.4,0.3-3.7,0.2-4.4-0.7c-0.7-0.8-0.4-3.2,0.4-4.4c2.9-4.7,6.1-9.3,9.4-14.2c-3.9-2.3-7.8-4.3-11.4-6.7c-1.4-0.9-2.9-2.7-3-4.1
		c-0.1-1,2.1-2.5,3.6-3.1c4.8-2.1,9.7-3.8,15.1-5.9c-2.4-3.1-4.6-5.9-6.9-8.7c-0.7-0.8-1.5-1.6-1.9-2.5c-0.5-1.2-1.4-3-0.9-3.8
		c0.7-1,2.5-1.9,3.8-1.9c7.1-0.1,14.2,0,21.7,0.1c0.2-4.5,0.3-8.9,0.4-13.4c0.2-5.3,1.5-6.2,6.3-4.2c4.5,1.8,9,3.6,13.9,5.6
		c1.6-5.9,3-11.5,4.7-17c0.4-1.4,1.6-3.3,2.8-3.6c1.1-0.3,2.9,1,3.9,2.1c3.1,3.5,6,7.3,9.2,11.2c4.3-4.4,8.4-8.6,12.7-12.7
		c1.1-1,3.2-2.2,4-1.7c1.2,0.7,2.2,2.6,2.4,4.2c0.6,5.4,0.8,10.8,1.1,16.6c5.7-0.2,11.2-0.6,16.8-0.6c1.5,0,3.6,0.8,4.3,1.9
		c0.5,0.9-0.3,3.1-1.2,4.3c-2.3,3.3-5,6.3-7.8,9.8c3.5,2.9,6.8,5.7,10.2,8.3c1.9,1.5,2.3,2.9,1.3,5.2c-0.4,0.9,0,2.6,0.6,3.7
		C137.5,282.5,138.9,285.4,136.9,288.7z M139.3,329.1c0-0.6,0-1.3,0-2c-0.3-4.6-0.4-4.7-5.1-4.1c-2.1,0.3-4.2,0.7-6.3,1.2
		c-2.3,0.6-4.2,0.3-4.7-2.2c-0.5-2.6,1.1-3.6,3.4-3.9c2.9-0.4,5.8-1,8.7-1.5c0.7-0.1,1.6-0.3,2.1-0.9c4.2-4.8,4.6-12.6,0.9-17.9
		c-2-2.8-7.7-4.6-10.3-3.2c-21.6,12.1-43.3,24.2-64.9,36.4c-0.9,0.5-1.7,1.6-2.1,2.5c-2.9,8.2,3.1,16.5,12,16.7
		c2.4,0.1,4.4-0.3,5.9-2.7c1.3-2.2,3.4-3.9,5.2-5.8c1.6-1.9,3.5-2.8,5.5-0.8c1.8,1.9,0.7,3.6-0.9,5.2c-1.7,1.8-3.3,3.7-5,5.5
		c-2,2.2-2.1,4.1,0.7,5.7c0.9,0.5,1.7,1,2.2,1.3c2-3.8,3.7-7.4,5.8-10.8c0.6-0.9,3.2-1.3,4.1-0.7c0.9,0.6,1.2,2.8,0.9,4.1
		c-0.4,1.8-1.9,3.3-2.7,5c-2.7,5.9-1.7,7.4,5,7.9c0.6-2.9,1.1-5.8,1.7-8.6c0.5-2.1,1.4-4,4.1-3.4c2.6,0.6,2.6,2.6,2.1,4.8
		c-0.5,2.5-0.9,5-1.4,8.3c5.8-0.6,10.9-1,15.9-1.7c1.1-0.1,2.3-0.9,3-1.7c3.1-4,6.1-8,9.5-12.7c-2.8-1.2-4.9-2.2-7.1-3
		c-2.1-0.8-4.3-1.5-3.5-4.3c0.9-3.1,3.3-2.4,5.6-1.6c2.5,0.9,5.1,1.9,7.6,2.8c3-6.1,2.2-7.7-4.5-8.5c-1.2-0.1-2.4-0.2-3.5-0.2
		c-2.2,0-4.3-0.3-4.4-3c-0.1-2.8,2.1-3.5,4.4-3.4C132.6,328.3,135.9,328.7,139.3,329.1z M42.4,315.6c2.7-4.5,4.8-8.2,7.2-11.7
		c1.3-1.9,3-3.7,4.9-4.8c16.1-9.2,32.2-18.2,48.4-27.2c1.8-1,4-1.5,6-1.6c4.5-0.2,9,0,14.5,0c-2.2-1.8-3.6-3-5.2-4.1
		c-2.8-1.9-2.8-4.1-0.7-6.5c1.7-2,3.4-4.1,5.4-6.7c-4.8,0.2-8.8,0.2-12.8,0.6c-3.4,0.3-4.8-1.2-4.9-4.4c-0.2-4-0.5-7.9-0.8-12.6
		c-3.6,3.7-6.8,6.8-9.9,10c-2.9,3-4.5,2.9-7.1-0.4c-2.2-2.7-4.4-5.5-6.6-8.2c-0.4,0-0.8,0-1.1,0c-1.1,4.4-2.1,8.9-3.3,13.3
		c-1.1,4.1-2.5,4.8-6.4,3.2c-4.3-1.7-8.6-3.5-13.3-5.3c-0.1,4.5-0.2,8.4-0.3,12.3c-0.1,4.2-1,5-5.1,5c-5.5,0-11.1-0.1-17.1-0.1
		c2.4,3,4.4,5.6,6.5,8.2c3.3,4,3,5.3-1.6,7.3c-1,0.4-2,0.7-3,1.1c-3.2,1.3-6.4,2.6-10.1,4.1c3.6,2.1,6.4,3.8,9.3,5.3
		c3,1.6,3.1,3.5,1.3,6.1c-1.9,2.8-3.8,5.6-6.2,9c2.2-0.7,3.4-1.1,4.6-1.5c4.4-1.5,5.8-0.6,6.5,4C41.7,311.4,42,313,42.4,315.6z
		 M92.4,307.2c4.3-2.4,8.7-4.9,13-7.3c8.7-4.9,9.2-6.7,4.1-15.2c-0.1-0.2-0.2-0.4-0.4-0.6c-2.7-4.3-5.7-5.1-10.2-2.6
		c-9.4,5.3-18.8,10.6-28.3,15.8c-9.2,5.2-9.9,7.8-4,16.6c0.1,0.1,0.1,0.2,0.2,0.3c2.5,3.5,5.4,4.2,9.2,2.1
		C81.6,313.3,87,310.2,92.4,307.2z M65.2,322.3c-3.1-5.6-6.2-11.1-9.3-16.7c-2.4,4-4.9,8.1-7.3,12.3c-0.4,0.6-0.5,1.7-0.2,2.3
		c1.5,3,3.2,5.9,4.9,8.9C57.7,326.5,61.7,324.2,65.2,322.3z M119.7,291.5c3.7-2.1,7.7-4.3,12-6.7c-1.2-2.2-2.2-4.2-3.5-6.1
		c-0.5-0.8-1.5-1.8-2.2-1.8c-4.6-0.2-9.3-0.2-14.6-0.2C114.4,282.1,117,286.7,119.7,291.5z"/>
	<path class="st1" d="M139.3,329.1c-3.4-0.4-6.7-0.8-9.9-1c-2.3-0.2-4.5,0.6-4.4,3.4c0.1,2.6,2.2,3,4.4,3c1.2,0,2.4,0,3.5,0.2
		c6.7,0.7,7.5,2.4,4.5,8.5c-2.5-0.9-5-1.9-7.6-2.8c-2.2-0.8-4.7-1.4-5.6,1.6c-0.8,2.8,1.3,3.6,3.5,4.3c2.2,0.8,4.3,1.8,7.1,3
		c-3.4,4.6-6.4,8.7-9.5,12.7c-0.7,0.8-1.9,1.6-3,1.7c-5,0.7-10.1,1.1-15.9,1.7c0.5-3.2,0.9-5.8,1.4-8.3c0.5-2.2,0.5-4.2-2.1-4.8
		c-2.6-0.7-3.6,1.2-4.1,3.4c-0.6,2.9-1.2,5.8-1.7,8.6c-6.7-0.5-7.7-2-5-7.9c0.8-1.7,2.2-3.2,2.7-5c0.3-1.3,0-3.6-0.9-4.1
		c-0.9-0.6-3.5-0.1-4.1,0.7c-2.2,3.3-3.9,7-5.8,10.8c-0.5-0.3-1.3-0.8-2.2-1.3c-2.8-1.6-2.7-3.5-0.7-5.7c1.7-1.8,3.2-3.8,5-5.5
		c1.6-1.6,2.7-3.4,0.9-5.2c-1.9-2-3.8-1-5.5,0.8c-1.7,2-3.8,3.6-5.2,5.8c-1.5,2.5-3.5,2.8-5.9,2.7c-8.9-0.2-14.9-8.5-12-16.7
		c0.3-1,1.2-2,2.1-2.5c21.6-12.2,43.2-24.3,64.9-36.4c2.6-1.5,8.3,0.3,10.3,3.2c3.7,5.3,3.3,13-0.9,17.9c-0.4,0.5-1.4,0.7-2.1,0.9
		c-2.9,0.6-5.8,1.1-8.7,1.5c-2.3,0.4-4,1.4-3.4,3.9c0.5,2.5,2.4,2.8,4.7,2.2c2.1-0.5,4.2-0.9,6.3-1.2c4.7-0.6,4.8-0.5,5.1,4.1
		C139.3,327.8,139.3,328.5,139.3,329.1z M82,324.2c-2.4,1.3-3.2,4.1-2,6.4c1.1,2.1,4.3,3.1,6.5,1.9c2.3-1.2,3.1-4.1,1.8-6.4
		C87,323.7,84.4,322.9,82,324.2z M110.9,313.2c1.3,2.4,4,3.3,6.3,2.2c2.1-1.1,3.2-4.2,2.1-6.4c-1.1-2.3-4-3.2-6.4-2
		C110.4,308.2,109.6,310.7,110.9,313.2z"/>
	<path class="st1" d="M42.4,315.6c-0.4-2.6-0.7-4.1-0.9-5.7c-0.6-4.6-2-5.4-6.5-4c-1.2,0.4-2.5,0.8-4.6,1.5c2.4-3.5,4.2-6.3,6.2-9
		c1.8-2.5,1.6-4.5-1.3-6.1c-2.9-1.5-5.7-3.3-9.3-5.3c3.7-1.5,6.9-2.8,10.1-4.1c1-0.4,2-0.7,3-1.1c4.6-2.1,4.9-3.4,1.6-7.3
		c-2.1-2.5-4.1-5.2-6.5-8.2c6,0,11.6,0.1,17.1,0.1c4.1,0,5-0.8,5.1-5c0.1-3.9,0.2-7.8,0.3-12.3c4.6,1.9,9,3.6,13.3,5.3
		c3.9,1.6,5.3,0.9,6.4-3.2c1.2-4.4,2.2-8.9,3.3-13.3c0.4,0,0.8,0,1.1,0c2.2,2.7,4.4,5.5,6.6,8.2c2.6,3.3,4.2,3.4,7.1,0.4
		c3.1-3.2,6.3-6.3,9.9-10c0.3,4.7,0.7,8.6,0.8,12.6c0.1,3.3,1.6,4.7,4.9,4.4c4-0.3,8-0.4,12.8-0.6c-2.1,2.6-3.7,4.7-5.4,6.7
		c-2.1,2.5-2.1,4.6,0.7,6.5c1.5,1.1,2.9,2.3,5.2,4.1c-5.4,0-10-0.2-14.5,0c-2,0.1-4.2,0.7-6,1.6c-16.2,9-32.4,18-48.4,27.2
		c-1.9,1.1-3.6,2.9-4.9,4.8C47.2,307.4,45.1,311.1,42.4,315.6z"/>
	<path class="st1" d="M92.4,307.2c-5.4,3-10.8,6.1-16.2,9c-3.8,2.1-6.7,1.4-9.2-2.1c-0.1-0.1-0.1-0.2-0.2-0.3
		c-5.9-8.8-5.3-11.4,4-16.6c9.4-5.3,18.8-10.6,28.3-15.8c4.5-2.5,7.5-1.7,10.2,2.6c0.1,0.2,0.2,0.4,0.4,0.6c5,8.6,4.5,10.4-4.1,15.2
		C101.1,302.3,96.7,304.8,92.4,307.2z"/>
	<path class="st1" d="M65.2,322.3c-3.5,2-7.5,4.2-12,6.7c-1.7-3-3.4-5.9-4.9-8.9c-0.3-0.6-0.1-1.6,0.2-2.3c2.4-4.2,4.9-8.3,7.3-12.3
		C59,311.2,62.1,316.7,65.2,322.3z"/>
	<path class="st1" d="M119.7,291.5c-2.7-4.8-5.3-9.5-8.3-14.8c5.3,0,10,0,14.6,0.2c0.8,0,1.7,1.1,2.2,1.8c1.2,1.9,2.2,3.9,3.5,6.1
		C127.4,287.2,123.4,289.5,119.7,291.5z"/>
	<path d="M82,324.2c2.4-1.3,5-0.5,6.3,1.9c1.3,2.4,0.4,5.2-1.8,6.4c-2.1,1.1-5.3,0.2-6.5-1.9C78.8,328.3,79.7,325.5,82,324.2z"/>
	<path d="M110.9,313.2c-1.3-2.4-0.4-5,2.1-6.2c2.4-1.2,5.2-0.3,6.4,2c1.1,2.2,0,5.4-2.1,6.4C114.8,316.5,112.1,315.6,110.9,313.2z"
		/>
</g>
</svg>
