<?xml version="1.0" encoding="utf-8"?>
<!-- Generator: Adobe Illustrator 22.1.0, SVG Export Plug-In . SVG Version: 6.00 Build 0)  -->
<svg version="1.1" xmlns="http://www.w3.org/2000/svg" xmlns:xlink="http://www.w3.org/1999/xlink" x="0px" y="0px"
	 viewBox="0 0 612 792" style="enable-background:new 0 0 612 792;" xml:space="preserve">
<style type="text/css">
	.st0{display:none;}
	.st1{display:inline;fill:#ED2024;}
	.st2{fill:#FFFFFF;}
	.st3{fill:#FDFEFE;}
	.st4{fill:none;stroke:#FFFFFF;stroke-width:4;stroke-miterlimit:10;}
</style>
<g id="Layer_2" class="st0">
	<rect class="st1" width="612" height="792"/>
</g>
<g id="Layer_1">
	<g>
		
			<rect x="354.4" y="163.6" transform="matrix(3.209971e-03 -1 1 3.209971e-03 190.1727 535.2042)" class="st2" width="18.4" height="17.2"/>
		<path class="st2" d="M389.1,236.7l0.1-18.4l-17.2-0.1l0.1-18.4l-17.2-0.1l0.1-18.4l-17.2-0.1l-0.1,18.4l-17.2-0.1l-17.2-0.1l0,0.2
			H303h-17.2v-18.4h-17.2v18.4h-17.2v18.4h-17.2v18.4h-17.2v18.4v18.4v18.4h17.2v-18.4v-18.4h17.2v18.4v18.4h17.2v-18.4h17.2H303
			l6.9,0l-6.8,0h17.2v-0.1l0.1,0l17.2,0.1l17.2,0.1l-0.1,18.4l17.2,0.1l0.1-18.4l0.1-18.4L389,255l-0.1,18.4l-0.1,18.4l17.2,0.1
			l0.1-18.4l0.1-18.4l0.1-18.4L389.1,236.7z M285.9,236.5h-17.2v-18.4h17.2V236.5z M320.3,273.2L320.3,273.2L320.3,273.2
			L320.3,273.2z M354.8,236.5l-17.2-0.1l0.1-18.4l17.2,0.1L354.8,236.5z"/>
		<polygon class="st2" points="320.3,291.6 320.3,310 337.4,310 354.6,310.1 354.6,291.7 337.5,291.7 		"/>
		<rect x="251.6" y="163" class="st2" width="17.2" height="18.4"/>
		<polygon class="st2" points="285.9,310.1 303,310.1 303,291.7 285.9,291.7 268.7,291.7 268.7,310.1 		"/>
	</g>
	<g>
		<rect x="343.6" y="471.2" class="st3" width="5.4" height="1.9"/>
		<path class="st3" d="M332.6,445.5h-0.2l-1.3,5.9h1.3c0.1-2.5,0.2-4.3,0.2-5.4V445.5z"/>
		<path class="st3" d="M249.5,422.8c-1.4-2.5-3.9-3.8-7.6-3.8h-2.1c-4.4,0-7.1,1.9-8.2,5.8c-0.5,1.9-0.9,5.1-1.2,9.6h0.2l-0.2,0.2
			v7.9H224v2.9h6.5c-0.1,12.5-0.1,21.9-0.1,28.3v3.1h14.5v-4.8h6.7v-0.2c0-5.9,0-14.1-0.1-24.7c0-0.4,0-1.6,0.1-3.3
			C251.5,432.5,250.9,425.5,249.5,422.8z"/>
		<rect x="332.6" y="451.5" class="st3" width="10.5" height="2.1"/>
		<path class="st3" d="M292,445.4v1c0,0.9,0.1,2.6,0.2,5.1h1.5c-1-3.9-1.5-5.9-1.5-6.1H292z"/>
		<polygon class="st3" points="309.1,451.5 293.8,451.5 294.2,453.5 309.5,453.5 		"/>
		<rect x="287.2" y="451.5" class="st3" width="4.8" height="2.1"/>
		<path class="st3" d="M311.2,458.2h1.8v7.8h2.7v-12h0.7v-0.4h-6.6C310.5,456.7,310.9,458.2,311.2,458.2z"/>
		<path class="st3" d="M316.7,453.5h13.8c0.4-1.1,0.5-1.7,0.5-2.1h-13.9L316.7,453.5z"/>
		<path class="st3" d="M184.9,459.3v-0.4c-0.3-5.3-0.4-8.5-0.4-9.6h-3.4c2.1,5.1,3.3,8.5,3.7,10.1H184.9z"/>
		<rect x="215.7" y="463.4" class="st3" width="4.5" height="4.7"/>
		<rect x="184.5" y="446" class="st3" width="7" height="3.2"/>
		<path class="st3" d="M68.8,386.3l43,129.5h410.1l38.9-129.5H68.8z M163,445.5v-14.6h-2.2v44.5h-3.5v15.3h-14.5v-33.1h2.6v-0.2
			c-0.1-28.5-0.1-46.2-0.1-52.8H163c0.2,0,2.1,4.6,5.7,13.9c0.3,0.4,4,9.5,11.2,27.4h4.5v-41.3h15.5v49.2h1.8v19.2h-6.2v3.7h6.2
			v11.4h-23.2v-14.5h-4.1C168.7,460.1,164.9,450.7,163,445.5z M206.5,491.4h-28.1v-1.6h28.1V491.4z M291,490.4h-15.5V489H291V490.4z
			 M357.7,473.1h-8.8v18.3h-15.2v-6.7h1.9v-20.7h-3.2v-10.4h-1.9l-0.1,0.6h-1.6v14.7h-5.3v6.9H319v11.7h-10.7V480h-6.6v-10.2h-3.9
			v-10.7h-2.2c-0.1-0.6-0.6-2.4-1.5-5.6h-2V467h1v14.7h-3.8v2.6h3.8v3.9h-13.7v-17.8h-2.6v-25H269v31.4h-4.2v11.3h-8.4v3.2h-29.5
			v-3.2h-3.6v-11.3h-7.6V468H205v-4.7h8.1c-0.1-7.1-0.1-12.5-0.1-16.3v-7.4c0-13.7,2.3-22.9,7-27.6c4.2-5,11.3-7.5,21.2-7.5
			c12.5,0,20.6,4.3,24.6,13c2.2,4.2,3.3,12.4,3.3,24.6v0.4h7.8v-37.7h19.3c2.1,7.8,6.5,23.3,13.1,46.6h7.6c0.2,0,1-2.8,2.5-8.3
			c3.2-11,6.8-23.8,10.8-38.3H348V461h1v10.3h8.8V473.1z M377.5,447c0,0.2-0.1,0.3-0.2,0.3h-1.9v43.8c0,0.2-0.1,0.3-0.3,0.3h-14.1
			c-0.2,0-0.3-0.1-0.3-0.3v-44.8h-4.4c-0.2,0-0.3-0.1-0.3-0.3v-1.9c0-0.2,0.1-0.3,0.3-0.3h4.4v-39c0-0.2,0.1-0.3,0.3-0.3h16.4
			c0.2,0,0.2,0.1,0.2,0.3V447z M398.4,422.6c-2.9,4.8-5.7,7.1-8.4,7.1v-2.6c3-1.7,4.7-5.6,5.3-11.5c0-4.8-2.6-8.1-7.8-9.8v-2.5
			l7.2-7.6c1.8,0,3.6,1.3,5.4,4c1.8,2.6,2.7,5.7,2.7,9.2C402.7,413.3,401.3,417.9,398.4,422.6z M471.5,449.1h-6.1v2.4h2.5v26.3h-5
			v13.5h-38.6v-13.5h-9.1v-9.1h-5.8v-3.2h5.8v-2.1H433v14.4H451v-21.7h-13.5v-7.1h-16.8v-1.7h8.1v-0.1c-7.1-4.7-10.7-11.4-10.7-20.1
			v-1.2c0-7.2,2.2-12.7,6.7-16.5c4-3.2,10.3-4.9,18.7-4.9c9.6,0,16.1,3.1,19.3,9.3c2.3,4.7,3.4,9.3,3.4,13.8h-0.1
			c-6.6,0.6-11.1,0.9-13.5,0.9c0-3.2-1-5.9-3-8.1c-1.9-1.1-3.6-1.6-5.2-1.6h-2.4c-4.1,0-6.6,1.6-7.5,4.8c-0.2,0.9-0.3,1.7-0.3,2.2
			v1.3c0,4.5,2.4,7.8,7.2,9.8c0.4,0.4,3.7,1.9,9.9,4.5c3.3,1.5,6.4,3.4,9.2,5.7v0.1h-15.2v1.7h20.1v-1.7h6.1V449.1z"/>
		<rect x="415.3" y="465.6" class="st3" width="5.2" height="3.2"/>
		<path class="st3" d="M179.5,446h-8.2v3.2h9.6C180.2,447.1,179.7,446,179.5,446z"/>
		<rect x="360.7" y="443.8" class="st3" width="8.4" height="2.5"/>
		<rect x="262.6" y="442.6" class="st3" width="6.4" height="2.9"/>
	</g>
	<g>
		<path class="st2" d="M316.1,540.2c1.6,0,2.3,0,3.9,0.1c0-0.5,0-0.7,0-1.2c-1.6,0-2.3-0.1-3.9-0.1
			C316.1,539.5,316.1,539.8,316.1,540.2z"/>
		<path class="st2" d="M358.3,546.2c1.6,0.3,2.4,0.4,3.9,0.7c0.1-0.9,0.2-1.3,0.3-2.1c-3.1-0.5-4.6-0.8-7.7-1.2
			c-0.7,4.7-1,7.1-1.6,11.9c1.9,0.3,2.8,0.4,4.6,0.7c0.1-0.3,0.1-0.5,0.1-0.8c1.1,0.2,1.7,0.3,2.8,0.5c0.5-3.3,0.8-4.9,1.3-8.2
			c-1.6-0.3-2.4-0.4-3.9-0.7C358.2,546.6,358.3,546.4,358.3,546.2z"/>
		<path class="st2" d="M300.4,555.6c0,0.3,0,0.5,0,0.8c1,0,1.4,0,2.4-0.1c0-0.3,0-0.5,0-0.8C301.8,555.5,301.3,555.5,300.4,555.6z"
			/>
		<path class="st2" d="M362.2,546.8c0,0.3-0.1,0.4-0.1,0.7c3.1,0.5,4.6,0.8,7.7,1.4c0.1-0.3,0.1-0.4,0.1-0.7
			C366.9,547.6,365.3,547.4,362.2,546.8z"/>
		<path class="st2" d="M268.5,528.3c1.7-0.2,2.5-0.3,4.2-0.5c0,0,0,0,0-0.1c0-0.2-0.2-0.5-0.4-1c-1.6,0.2-2.3,0.3-3.9,0.5
			C268.4,527.7,268.5,527.9,268.5,528.3z"/>
		<path class="st2" d="M431.1,531l-17.7-5.6l-20.8-6.3l-24.6-1.9l-14-3.9h-17.6h-13.5h-16.7h-26l-17.3,3.9l-25.5,1.8l-37.4,9.4
			l-15.5,9.5l16.2,44.1l18.8-6.3l22.9-7.5l24.1-2.3l19.3-4.2l18.1,0.8l16-2l16.3,3.1l20.8,1.5l19.1,3.3l17,3.8l18.4,2.8l17.3,6.8
			l16.4-44.2L431.1,531z M272.8,527.9c0.5,1.5,1,3.1,1.3,4.9c0,0.1-2.6,0.6-7.9,1.6c0,0,0,0,0-0.1c-0.6-4.5-2.6-6.6-6-6
			c-0.4,0.1-0.5,0.1-0.9,0.1c-2.5,0.4-3.9,1.7-4.1,3.7c-0.2,1.7,0,4,0.5,6.7c0.4,2.2,0.6,3.3,0.9,5.5c0,0.3,0,0.5,0.1,0.8
			c-1.1,0.2-1.6,0.3-2.7,0.5c0.1,0.5,0.1,0.8,0.2,1.3c1.1-0.2,1.6-0.3,2.7-0.5c0.7,3.9,1,5.9,1.7,9.9c4.4-0.8,6.6-1.1,11-1.8
			c-0.5-4.1-0.8-6.2-1.4-10.3c2.6-0.4,3.9-0.5,6.5-0.9c0.5,4.1,0.7,6.2,1.2,10.3c-1.4,0.2-2.1,0.3-3.5,0.4c0.3,2.5,0.5,3.8,0.8,6.4
			c-2.9,0.4-4.3,0.6-7.2,1c0,0.2,0,0.3,0.1,0.5c-2.2,0.4-3.3,0.5-5.5,0.9c0-0.2-0.1-0.3-0.1-0.5c-2.3,0.4-3.4,0.6-5.6,1.1
			c-0.2-1.3-0.3-1.9-0.6-3.1c1.5-0.3,2.3-0.4,3.8-0.7c-0.1-0.5-0.1-0.8-0.2-1.4c-2.3,0.4-3.4,0.6-5.7,1.1c-0.4-1.9-0.5-2.8-0.9-4.6
			c-1,0.2-1.5,0.3-2.5,0.5c-0.5-2.3-0.7-3.4-1.1-5.7c0.5-0.1,0.8-0.2,1.3-0.3c-0.5-2.3-0.9-4.2-1.2-5.6c-1.2-6.2-1.6-10.2-1.3-11.9
			c0.3-1.9,0.9-3.8,2.1-5.4c2.1-2.6,5.6-4.3,10.5-5.1c6.3-1,10.5,0.3,12.5,3.7c0.6,0.8,0.9,1.4,0.9,1.6c2.9-0.3,4.3-0.5,7.2-0.8
			c0,0.4,0.1,0.7,0.1,1.1C276.8,527.3,275.5,527.4,272.8,527.9C272.8,527.8,272.8,527.8,272.8,527.9z M302.8,556.3
			c0,1,0,1.4,0.1,2.4c-3.1,0.1-4.6,0.1-7.7,0.3c0-0.3,0-0.4,0-0.6c-4.2,0.2-6.4,0.4-10.6,0.8c-0.1-0.5-0.1-0.8-0.1-1
			c-0.3-3.7-0.5-5.6-0.8-9.3c0.8-0.1,1.3-0.1,2.1-0.2c0-0.5-0.1-0.7-0.1-1.2c-0.8,0.1-1.3,0.1-2.1,0.2c-1-11.7-1.5-17.6-2.5-29.3
			c3.6-0.3,5.5-0.5,9.1-0.7c0.4,6.8,0.6,10.2,1,17.1c-0.7,0-1,0.1-1.7,0.1c0.5,7,0.7,10.6,1.1,17.6c4.9-0.3,7.3-0.5,12.2-0.6
			c0,1.5,0.1,2.2,0.1,3.7c1.2,0,1.8,0,3-0.1c0,0.3,0,0.5,0,0.8C304.6,556.3,304,556.3,302.8,556.3z M337.3,543.8
			c-1.2-0.1-1.8-0.2-2.9-0.2c-0.1,0.7-0.1,1.1-0.1,1.9c1.2,0.1,1.7,0.1,2.9,0.2c-0.1,0.6-0.1,1-0.2,1.4c-0.3,3.2-0.4,4.9-0.7,8.1
			c-1.6-0.1-2.5-0.2-4.1-0.3c-0.1,1.9-0.2,2.8-0.3,4.6c-7.2-0.5-10.8-0.7-18-0.8c0-2.3,0-3.4,0.1-5.7c-0.7,0-1,0-1.7,0
			c0-6.9,0.1-10.3,0.1-17.2c-0.3,0-0.4,0-0.6,0c0-7.5,0-11.2,0.1-18.6c3.5,0,5.3,0,8.8,0.2c-0.3,8.8-0.4,13.2-0.6,22
			c1.9,0.1,2.8,0.1,4.7,0.2c0,0.5,0,0.7-0.1,1.2c-1.9-0.1-2.8-0.1-4.7-0.2c0,1.6-0.1,2.5-0.1,4.1c-0.1,3.8,0.5,6,1.8,6.6
			c0.7,0.5,1.5,0.7,2.5,0.7c1,0,1.5,0.1,2.4,0.1c0.1-2.9,0.2-4.4,0.4-7.3c0.9,0,1.3,0.1,2.2,0.1c0.6-10.8,0.9-16.3,1.6-27.1
			c3.5,0.2,5.2,0.4,8.7,0.7C338.6,528.5,338.2,533.6,337.3,543.8z M373.6,549.7c-1.5-0.3-2.3-0.5-3.8-0.8c-0.5,2.9-0.8,4.3-1.3,7.1
			c0.3,0.1,0.5,0.1,0.8,0.2c-0.3,1.8-0.5,2.7-0.9,4.5c-1-0.2-1.5-0.3-2.4-0.5c-0.1,0.4-0.1,0.6-0.2,1.1c1,0.2,1.5,0.3,2.4,0.5
			c-0.1,0.7-0.2,1.1-0.4,1.8c-3.7-0.8-5.6-1.1-9.3-1.7c0,0.3-0.1,0.5-0.1,0.8c-4.1-0.7-6.1-1-10.2-1.5c0-0.3,0.1-0.5,0.1-0.8
			c-0.9-0.1-1.3-0.2-2.2-0.3c0.3-2.5,0.4-3.8,0.7-6.3c1.2,0.2,1.9,0.2,3.1,0.4c0.1-0.7,0.1-1,0.2-1.7c-1.3-0.2-1.9-0.3-3.1-0.4
			c0.3-3.2,0.6-5.6,0.7-7.2c0.1-1.2,0.2-1.8,0.4-3c-1.1-0.1-1.6-0.2-2.7-0.3c0-0.3,0-0.5,0.1-0.8c1.1,0.1,1.6,0.2,2.7,0.3
			c0.1-0.6,0.1-1,0.2-1.6c-0.5-0.1-0.8-0.1-1.3-0.2c0.9-7.8,1.3-11.7,2.2-19.5c0-0.1,0.1-0.1,0.1-0.1c5.1,0.6,7.7,1,12.8,1.8
			c5.7,0.9,9.1,2.9,10.1,5.8c0.6,1.5,0.7,3.4,0.2,5.8c-0.2,1.1-0.3,1.7-0.5,2.8c-0.5,2.7-2.1,4.6-4.8,5.7c0.8,0.3,1.7,1.1,2.8,2.4
			c0.4,0.1,0.6,0.1,0.9,0.2c0.9,1.4,1.5,2.7,1.6,3.9c0,0.4,0,0.6,0,0.7c0.5,0.1,0.7,0.1,1.1,0.2
			C373.7,549.3,373.6,549.5,373.6,549.7z"/>
		<path class="st2" d="M358.6,528c-0.6-0.1-0.9-0.1-1.4-0.2c-0.6,4-0.8,6.1-1.4,10.1c0.7,0.1,1.1,0.2,1.8,0.3
			c2.1,0.3,3.6,0.2,4.4-0.3c0.7-0.5,1.4-1.9,1.7-4.3c0-0.1,0-0.1,0-0.1c0.3-2.1,0.1-3.4-0.5-3.9C362.9,529.1,361.4,528.5,358.6,528z
			"/>
		<path class="st2" d="M348.2,541.9c1.6,0.2,2.3,0.3,3.9,0.5c0-0.3,0.1-0.4,0.1-0.7c-1.6-0.2-2.3-0.3-3.9-0.5
			C348.2,541.5,348.2,541.6,348.2,541.9z"/>
	</g>
	<g>
		<g>
			<ellipse class="st4" cx="524.3" cy="300.9" rx="58.3" ry="56.5"/>
		</g>
		<polygon class="st2" points="510.3,328.7 503.3,325 496.3,328.5 497.7,321 492.1,315.5 500,314.5 503.6,307.7 507,314.6 
			514.8,315.9 509.1,321.1 		"/>
		<polygon class="st2" points="554.6,318.2 547.7,314.5 540.6,318 542.1,310.5 536.5,305 544.4,304.1 548,297.2 551.4,304.2 
			559.2,305.4 553.4,310.6 		"/>
		<polygon class="st2" points="519.8,290.3 512.8,286.6 505.8,290.1 507.2,282.5 501.6,277.1 509.5,276.1 513.1,269.3 516.5,276.2 
			524.3,277.4 518.5,282.7 		"/>
		<polygon class="st2" points="554.6,286.1 547.7,282.5 540.6,285.9 542.1,278.4 536.5,273 544.4,272 548,265.2 551.4,272.1 
			559.2,273.3 553.4,278.6 		"/>
	</g>
	<path class="st2" d="M136.9,288.7c9.8,5.6,12.9,16.4,7.9,26.6c-0.6,1.1-0.7,2.7-0.4,3.9c3.3,12.3,1.8,23.7-5.8,34.1
		c-0.3,0.5-0.6,1-0.9,1.5c-10.8,15.6-9.4,14.6-28.4,16c-13.6,1-25.1-3.3-34.5-13.3c-0.8-0.9-2.5-1.2-3.8-1.3
		c-8.1-0.4-19.6-9.4-17.5-20.9c-5.7-0.5-6.2-6.1-9.2-9.7c-0.6,0.7-1.1,1.4-1.7,1.9c-2.4,2-4.9,0.7-5.4-2.8
		c-0.6-4.1-1.1-8.2-1.7-12.5c-3.8,1.2-7.2,2.5-10.8,3.4c-1.4,0.3-3.7,0.2-4.4-0.7c-0.7-0.8-0.4-3.2,0.4-4.4
		c2.9-4.7,6.1-9.3,9.4-14.2c-3.9-2.3-7.8-4.3-11.4-6.7c-1.4-0.9-2.9-2.7-3-4.1c-0.1-1,2.1-2.5,3.6-3.1c4.8-2.1,9.7-3.8,15.1-5.9
		c-2.4-3.1-4.6-5.9-6.9-8.7c-0.7-0.8-1.5-1.6-1.9-2.5c-0.5-1.2-1.4-3-0.9-3.8c0.7-1,2.5-1.9,3.8-1.9c7.1-0.1,14.2,0,21.7,0.1
		c0.2-4.5,0.3-8.9,0.4-13.4c0.2-5.3,1.5-6.2,6.3-4.2c4.5,1.8,9,3.6,13.9,5.6c1.6-5.9,3-11.5,4.7-17c0.4-1.4,1.6-3.3,2.8-3.6
		c1.1-0.3,2.9,1,3.9,2.1c3.1,3.5,6,7.3,9.2,11.2c4.3-4.4,8.4-8.6,12.7-12.7c1.1-1,3.2-2.2,4-1.7c1.2,0.7,2.2,2.6,2.4,4.2
		c0.6,5.4,0.8,10.8,1.1,16.6c5.7-0.2,11.2-0.6,16.8-0.6c1.5,0,3.6,0.8,4.3,1.9c0.5,0.9-0.3,3.1-1.2,4.3c-2.3,3.3-5,6.3-7.8,9.8
		c3.5,2.9,6.8,5.7,10.2,8.3c1.9,1.5,2.3,2.9,1.3,5.2c-0.4,0.9,0,2.6,0.6,3.7C137.5,282.5,138.9,285.4,136.9,288.7z M139.3,329.1
		c0-0.6,0-1.3,0-2c-0.3-4.6-0.4-4.7-5.1-4.1c-2.1,0.3-4.2,0.7-6.3,1.2c-2.3,0.6-4.2,0.3-4.7-2.2c-0.5-2.6,1.1-3.6,3.4-3.9
		c2.9-0.4,5.8-1,8.7-1.5c0.7-0.1,1.6-0.3,2.1-0.9c4.2-4.8,4.6-12.6,0.9-17.9c-2-2.8-7.7-4.6-10.3-3.2
		c-21.6,12.1-43.3,24.2-64.9,36.4c-0.9,0.5-1.7,1.6-2.1,2.5c-2.9,8.2,3.1,16.5,12,16.7c2.4,0.1,4.4-0.3,5.9-2.7
		c1.3-2.2,3.4-3.9,5.2-5.8c1.6-1.9,3.5-2.8,5.5-0.8c1.8,1.9,0.7,3.6-0.9,5.2c-1.7,1.8-3.3,3.7-5,5.5c-2,2.2-2.1,4.1,0.7,5.7
		c0.9,0.5,1.7,1,2.2,1.3c2-3.8,3.7-7.4,5.8-10.8c0.6-0.9,3.2-1.3,4.1-0.7c0.9,0.6,1.2,2.8,0.9,4.1c-0.4,1.8-1.9,3.3-2.7,5
		c-2.7,5.9-1.7,7.4,5,7.9c0.6-2.9,1.1-5.8,1.7-8.6c0.5-2.1,1.4-4,4.1-3.4c2.6,0.6,2.6,2.6,2.1,4.8c-0.5,2.5-0.9,5-1.4,8.3
		c5.8-0.6,10.9-1,15.9-1.7c1.1-0.1,2.3-0.9,3-1.7c3.1-4,6.1-8,9.5-12.7c-2.8-1.2-4.9-2.2-7.1-3c-2.1-0.8-4.3-1.5-3.5-4.3
		c0.9-3.1,3.3-2.4,5.6-1.6c2.5,0.9,5.1,1.9,7.6,2.8c3-6.1,2.2-7.7-4.5-8.5c-1.2-0.1-2.4-0.2-3.5-0.2c-2.2,0-4.3-0.3-4.4-3
		c-0.1-2.8,2.1-3.5,4.4-3.4C132.6,328.3,135.9,328.7,139.3,329.1z M42.4,315.6c2.7-4.5,4.8-8.2,7.2-11.7c1.3-1.9,3-3.7,4.9-4.8
		c16.1-9.2,32.2-18.2,48.4-27.2c1.8-1,4-1.5,6-1.6c4.5-0.2,9,0,14.5,0c-2.2-1.8-3.6-3-5.2-4.1c-2.8-1.9-2.8-4.1-0.7-6.5
		c1.7-2,3.4-4.1,5.4-6.7c-4.8,0.2-8.8,0.2-12.8,0.6c-3.4,0.3-4.8-1.2-4.9-4.4c-0.2-4-0.5-7.9-0.8-12.6c-3.6,3.7-6.8,6.8-9.9,10
		c-2.9,3-4.5,2.9-7.1-0.4c-2.2-2.7-4.4-5.5-6.6-8.2c-0.4,0-0.8,0-1.1,0c-1.1,4.4-2.1,8.9-3.3,13.3c-1.1,4.1-2.5,4.8-6.4,3.2
		c-4.3-1.7-8.6-3.5-13.3-5.3c-0.1,4.5-0.2,8.4-0.3,12.3c-0.1,4.2-1,5-5.1,5c-5.5,0-11.1-0.1-17.1-0.1c2.4,3,4.4,5.6,6.5,8.2
		c3.3,4,3,5.3-1.6,7.3c-1,0.4-2,0.7-3,1.1c-3.2,1.3-6.4,2.6-10.1,4.1c3.6,2.1,6.4,3.8,9.3,5.3c3,1.6,3.1,3.5,1.3,6.1
		c-1.9,2.8-3.8,5.6-6.2,9c2.2-0.7,3.4-1.1,4.6-1.5c4.4-1.5,5.8-0.6,6.5,4C41.7,311.4,42,313,42.4,315.6z M92.4,307.2
		c4.3-2.4,8.7-4.9,13-7.3c8.7-4.9,9.2-6.7,4.1-15.2c-0.1-0.2-0.2-0.4-0.4-0.6c-2.7-4.3-5.7-5.1-10.2-2.6
		c-9.4,5.3-18.8,10.6-28.3,15.8c-9.2,5.2-9.9,7.8-4,16.6c0.1,0.1,0.1,0.2,0.2,0.3c2.5,3.5,5.4,4.2,9.2,2.1
		C81.6,313.3,87,310.2,92.4,307.2z M65.2,322.3c-3.1-5.6-6.2-11.1-9.3-16.7c-2.4,4-4.9,8.1-7.3,12.3c-0.4,0.6-0.5,1.7-0.2,2.3
		c1.5,3,3.2,5.9,4.9,8.9C57.7,326.5,61.7,324.2,65.2,322.3z M119.7,291.5c3.7-2.1,7.7-4.3,12-6.7c-1.2-2.2-2.2-4.2-3.5-6.1
		c-0.5-0.8-1.5-1.8-2.2-1.8c-4.6-0.2-9.3-0.2-14.6-0.2C114.4,282.1,117,286.7,119.7,291.5z"/>
	<path class="st2" d="M82,324.2c2.4-1.3,5-0.5,6.3,1.9c1.3,2.4,0.4,5.2-1.8,6.4c-2.1,1.1-5.3,0.2-6.5-1.9
		C78.8,328.3,79.7,325.5,82,324.2z"/>
	<path class="st2" d="M110.9,313.2c-1.3-2.4-0.4-5,2.1-6.2c2.4-1.2,5.2-0.3,6.4,2c1.1,2.2,0,5.4-2.1,6.4
		C114.8,316.5,112.1,315.6,110.9,313.2z"/>
	<path class="st2" d="M537.4,353.8c-32.2,0-58.3-25.3-58.3-56.5c0-23.5,14.8-43.6,35.9-52.1c-27.7,4.3-48.9,27.6-48.9,55.7
		c0,31.2,26.1,56.5,58.3,56.5c7.9,0,15.5-1.5,22.4-4.3C543.7,353.5,540.5,353.8,537.4,353.8z"/>
	<g>
		<path class="st2" d="M220.3,591.6l-20.5-3.3c-3.7-10.1-7.4-20.1-11.1-30.1c-11.7,3.4-23.3,7.5-36.6,12.7
			c10.1,7.3,26.6,17.4,26.6,17.4s-4.5,21.8-6.2,32.1c18.6-7.3,43.5-17.1,64.5-22.2v-3.8L220.3,591.6z"/>
		<path class="st2" d="M450.8,588.7c0,0,16.4-10.1,26.6-17.4c-13.2-5.2-24.9-9.4-36.6-12.7c-3.7,10-7.4,20.1-11.1,30.1h0l-18.3,3h0
			l-23.2,3.8v2.1c21.9,4.7,48.9,15.4,68.8,23.2C455.3,610.5,450.8,588.7,450.8,588.7z"/>
		<path class="st2" d="M201.1,586.2l20.5,3.3L237,592v-16.3C224.9,578.6,212.9,582,201.1,586.2z"/>
		<path class="st2" d="M410.1,589.7L410.1,589.7l18.4-3c-13.2-4.7-26.6-8.5-40.2-11.5v18L410.1,589.7z"/>
		<path class="st2" d="M243.1,572.3c23.5-5,47.5-7.5,71.4-7.5c15,0,29.9,1,44.8,2.9c8.9,1.2,17.8,2.7,26.6,4.6
			c10.6,2.3,21.2,5.1,31.6,8.4c3.5,1.1,6.9,2.3,10.4,3.5h0c0.5-1.5,0.9-2.5,1.4-3.9l-4.1-1.4c-12.6-4.3-25.3-7.8-38.2-10.5
			c-23.7-5.1-48-7.7-72.5-7.7c-24.5,0-48.7,2.6-72.5,7.7c-12.9,2.8-25.7,6.3-38.3,10.6l-4.1,1.3c0.7,1.8,0.8,2.3,1.5,4.1
			C214.9,579.3,228.9,575.4,243.1,572.3z"/>
		<path class="st2" d="M188.2,536.5c40.7-13.9,83.2-20.9,126.3-20.9h0.4c42.7,0,85.1,7,125.9,20.9l4.1,1.3c0.5-1.5,0.9-2.4,1.4-3.9
			c-13.5-4.7-27-8.7-40.6-11.9c-4.4-1-8.8-2-13.3-2.9c-12.8-2.6-25.7-4.5-38.6-5.8c-12.9-1.3-25.9-1.9-38.9-1.9h-0.4
			c-5.6,0-11.1,0.1-16.7,0.4c-25.1,1.1-50.1,4.5-74.6,10.3c-13.6,3.2-27.1,7.2-40.5,11.9c0.7,1.8,0.8,2.2,1.5,4L188.2,536.5z"/>
	</g>
	<polygon class="st2" points="174.7,396 204.9,362.7 427,362.7 454.6,396 488.2,396 444.9,344.4 187.4,344.4 139.9,396 	"/>
	<polygon class="st2" points="360.8,563.6 314.8,620.1 269.3,563.6 253.7,563.6 314.8,638.3 376.6,563.6 	"/>
</g>
</svg>
